# xmcd
#
# Track frame offsets:
#	150
#	13115
#	33374
#	45744
#	67702
#	87691
#	102548
#	131989
#	149294
#	164533
#	194264
#	210893
#	225355
#	235949
#	256005
#
# Disc length: 3671 seconds
#
# Revision: 0
# Processed by: cddbd v1.5.2PL0 Copyright (c) Steve Scherf et al.
# Submitted via: audiograbber 1.83.01
#
DISCID=c90e550f
DTITLE=Best of Rock - British Rock
DYEAR=1900
DGENRE=Rock
TTITLE0=Fleetwood Mac - Black Magic Woman
TTITLE1=The Animals - House Of The Rising Sun
TTITLE2=The Spencer Davis Group - Keep On Running
TTITLE3=The Jeff Beck Group - All Shook Up
TTITLE4=Deep Purple - Hush
TTITLE5=The Hollies - Long Cool Woman In A Black Dress
TTITLE6=Argent - Time Of The Season
TTITLE7=The Yardbirds - White Summer
TTITLE8=The Who - My Generation
TTITLE9=Savoy Brown - I Can't Get Next To You
TTITLE10=Spooky Tooth - Better By You Better Than Me
TTITLE11=The Moody Blues - Go Now!
TTITLE12=The Pretty Things - Rosalyn
TTITLE13=The Move - Brontosaurus
TTITLE14=Traffic - Feelin' Alright?
EXTD=
EXTT0=
EXTT1=
EXTT2=
EXTT3=
EXTT4=
EXTT5=
EXTT6=
EXTT7=
EXTT8=
EXTT9=
EXTT10=
EXTT11=
EXTT12=
EXTT13=
EXTT14=
PLAYORDER=
